<?xml version="1.0" encoding="utf-8"?>
<!-- Generator: Adobe Illustrator 15.0.2, SVG Export Plug-In . SVG Version: 6.00 Build 0)  -->
<!DOCTYPE svg PUBLIC "-//W3C//DTD SVG 1.1//EN" "http://www.w3.org/Graphics/SVG/1.1/DTD/svg11.dtd">
<svg version="1.1" id="Calque_1" xmlns="http://www.w3.org/2000/svg" xmlns:xlink="http://www.w3.org/1999/xlink" x="0px" y="0px"
	 width="160px" height="24px" viewBox="0 0 160 24" enable-background="new 0 0 160 24" xml:space="preserve">
<path opacity="0.6" fill="#E8C6B0" enable-background="new    " d="M158,24c0,1.1-0.924,2-2.052,2H82.052C80.924,26,80,25.1,80,24V2
	c0-1.1,0.924-2,2.052-2h73.896C157.076,0,158,0.9,158,2V24z"/>
<linearGradient id="SVGID_1_" gradientUnits="userSpaceOnUse" x1="796.8799" y1="-768.7988" x2="796.8799" y2="-742.7988" gradientTransform="matrix(1 0 0 -1 -757.8799 -742.7988)">
	<stop  offset="0" style="stop-color:#E8C6B0"/>
	<stop  offset="1" style="stop-color:#EEEBE8"/>
</linearGradient>
<path fill="url(#SVGID_1_)" d="M78,24c0,1.1-0.9,2-2,2H2c-1.1,0-2-0.9-2-2V2c0-1.1,0.9-2,2-2h74c1.1,0,2,0.9,2,2V24z"/>
<g>
	
		<linearGradient id="SVGID_2_" gradientUnits="userSpaceOnUse" x1="1515.4395" y1="-1412.3594" x2="1515.4395" y2="-1408.3594" gradientTransform="matrix(1 0 0 -1 -1396.4395 -1408.3594)">
		<stop  offset="0" style="stop-color:#F01B57"/>
		<stop  offset="1" style="stop-color:#D31147"/>
	</linearGradient>
	<path fill="url(#SVGID_2_)" d="M158,4H80V3.034C80,1.357,81.377,0,83.073,0h71.854C156.625,0,158,1.357,158,3.034V4z"/>
</g>
<path fill="#C0C0C0" d="M156,1c0.552,0,1,0.449,1,1v22c0,0.553-0.448,1-1,1H82c-0.552,0-1-0.447-1-1V2c0-0.551,0.448-1,1-1H156
	 M156,0H82c-1.1,0-2,0.9-2,2v22c0,1.1,0.9,2,2,2h74c1.1,0,2-0.9,2-2V2C158,0.9,157.1,0,156,0L156,0z"/>
<path fill="#C0C0C0" d="M76,1c0.552,0,1,0.449,1,1v22c0,0.553-0.448,1-1,1H2c-0.552,0-1-0.447-1-1V2c0-0.551,0.448-1,1-1H76 M76,0H2
	C0.9,0,0,0.9,0,2v22c0,1.1,0.9,2,2,2h74c1.1,0,2-0.9,2-2V2C78,0.9,77.1,0,76,0L76,0z"/>
</svg>
